<svg height="496pt" viewBox="0 0 496 496" width="496pt" xmlns="http://www.w3.org/2000/svg">
<path d="m248 0c-136.742188 0-248 111.246094-248 248s111.257812 248 248 248 248-111.246094 248-248-111.257812-248-248-248zm0 480c-127.929688 0-232-104.078125-232-232s104.070312-232 232-232 232 104.078125 232 232-104.070312 232-232 232zm0 0"/>
<path d="m120 360v-33.152344c12.265625-3.304687 22.816406-14.054687 30-29.535156l28.34375 28.34375 11.3125-11.3125-33.710938-33.710938c2-7.632812 3.328126-15.890624 3.824219-24.632812h32.230469v-16h-32.230469c-.496093-8.734375-1.824219-17-3.824219-24.632812l33.710938-33.710938-11.3125-11.3125-28.34375 28.34375c-7.183594-15.480469-17.734375-26.230469-30-29.535156v-33.152344h-16v33.152344c-12.265625 3.304687-22.816406 14.054687-30 29.535156l-28.34375-28.34375-11.3125 11.3125 33.710938 33.710938c-1.992188 7.632812-3.320313 15.898437-3.824219 24.632812h-32.230469v16h32.230469c.496093 8.734375 1.824219 17 3.824219 24.632812l-33.710938 33.710938 11.3125 11.3125 28.34375-28.34375c7.183594 15.480469 17.734375 26.230469 30 29.535156v33.152344zm-40-112c0-37.71875 16.863281-64 32-64s32 26.28125 32 64-16.863281 64-32 64-32-26.28125-32-64zm0 0"/>
<path d="m406.816406 336c6.070313-16.457031 6.230469-31.929688-.3125-43.191406l24.039063-24.039063-11.3125-11.3125-24.039063 24.039063c-11.261718-6.542969-26.734375-6.382813-43.191406-.304688v-41.191406h-16v48.800781c-7.007812 4.09375-14 9.152344-20.726562 15.167969l-23.402344-23.402344-11.3125 11.3125 23.402344 23.402344c-6.015626 6.726562-11.074219 13.710938-15.167969 20.726562h-45.488281l5.253906-5.253906-11.3125-11.3125-23.230469 23.230469c-6.3125-4.199219-13.878906-6.671875-22.015625-6.671875s-15.695312 2.472656-22.023438 6.664062l-23.234374-23.230468-11.308594 11.308594 23.230468 23.234374c-2.785156 4.191407-4.816406 8.925782-5.855468 14.023438h-32.808594v16h32.808594c1.039062 5.097656 3.070312 9.824219 5.855468 14.023438l-23.230468 23.242187 11.308594 11.308594 23.234374-23.230469c4.199219 2.785156 8.925782 4.816406 14.023438 5.855469v32.800781h16v-32.808594c5.097656-1.039062 9.824219-3.070312 14.023438-5.855468l23.234374 23.230468 11.308594-11.308594-23.230468-23.234374c2.785156-4.191407 4.816406-8.925782 5.855468-14.023438h32.808594v-16h-32.808594c-1.039062-5.097656-3.070312-9.824219-5.855468-14.023438l14.664062-14.664062v12.6875h41.183594c-6.070313 16.457031-6.230469 31.929688.3125 43.191406l-24.039063 24.039063 11.3125 11.3125 24.046875-24.046875c5.65625 3.289062 12.328125 4.96875 19.710938 4.96875 7.320312 0 15.28125-1.601563 23.480468-4.625v41.160156h16v-48.824219c7-4.085937 13.953126-9.183593 20.671876-15.183593l23.449218 23.457031 11.3125-11.3125-23.402344-23.402344c6.015626-6.726563 11.074219-13.710937 15.167969-20.726563h48.792969v-16h-41.183594zm-214.816406 64c-13.230469 0-24-10.769531-24-24s10.769531-24 24-24 24 10.769531 24 24-10.769531 24-24 24zm105.65625-9.65625c-10.992188-10.992188-4.199219-42.265625 23.113281-69.574219 19.0625-19.066406 40.054688-28.128906 54.734375-28.128906 6.351563 0 11.519532 1.695313 14.839844 5.015625 10.992188 10.992188 4.199219 42.265625-23.113281 69.574219-27.308594 27.3125-58.574219 34.105469-69.574219 23.113281zm0 0"/><path d="m174.664062 134.023438-23.230468 23.242187 11.308594 11.308594 23.234374-23.230469c4.199219 2.785156 8.925782 4.816406 14.023438 5.855469v32.800781h16v-32.808594c5.097656-1.039062 9.824219-3.070312 14.023438-5.855468l23.234374 23.230468 11.308594-11.308594-23.230468-23.234374c2.785156-4.191407 4.816406-8.925782 5.855468-14.023438h32.808594v-16h-32.808594c-1.039062-5.097656-3.070312-9.824219-5.855468-14.023438l23.230468-23.242187-11.308594-11.308594-23.234374 23.230469c-4.199219-2.785156-8.925782-4.816406-14.023438-5.855469v-32.800781h-16v32.808594c-5.097656 1.039062-9.824219 3.070312-14.023438 5.855468l-23.234374-23.230468-11.308594 11.308594 23.230468 23.234374c-2.785156 4.191407-4.816406 8.925782-5.855468 14.023438h-32.808594v16h32.808594c1.039062 5.097656 3.070312 9.824219 5.855468 14.023438zm33.335938-46.023438c13.230469 0 24 10.769531 24 24s-10.769531 24-24 24-24-10.769531-24-24 10.769531-24 24-24zm0 0"/><path d="m312.808594 144h-32.808594v16h32.808594c1.039062 5.097656 3.070312 9.824219 5.855468 14.023438l-23.230468 23.242187 11.308594 11.308594 23.234374-23.230469c4.199219 2.785156 8.925782 4.816406 14.023438 5.855469v32.800781h16v-32.808594c5.097656-1.039062 9.824219-3.070312 14.023438-5.855468l23.234374 23.230468 11.308594-11.308594-23.230468-23.234374c2.785156-4.191407 4.816406-8.925782 5.855468-14.023438h32.808594v-16h-32.808594c-1.039062-5.097656-3.070312-9.824219-5.855468-14.023438l23.230468-23.242187-11.308594-11.308594-23.234374 23.230469c-4.199219-2.785156-8.925782-4.816406-14.023438-5.855469v-32.800781h-16v32.808594c-5.097656 1.039062-9.824219 3.070312-14.023438 5.855468l-23.234374-23.230468-11.308594 11.308594 23.230468 23.234374c-2.785156 4.191407-4.816406 8.925782-5.855468 14.023438zm39.191406-16c13.230469 0 24 10.769531 24 24s-10.769531 24-24 24-24-10.769531-24-24 10.769531-24 24-24zm0 0"/><path d="m240 200c-17.945312 0-32 21.089844-32 48s14.054688 48 32 48 32-21.089844 32-48-14.054688-48-32-48zm0 80c-7.550781 0-16-13.6875-16-32s8.449219-32 16-32 16 13.6875 16 32-8.449219 32-16 32zm0 0"/>
<path d="m232 232h16v32h-16zm0 0"/>
<path d="m344 144h16v16h-16zm0 0"/>
<path d="m184 368h16v16h-16zm0 0"/>
<path d="m200 104h16v16h-16zm0 0"/>
<path d="m96 216h16v16h-16zm0 0"/>
<path d="m112 248h16v16h-16zm0 0"/>
<path d="m96 280h16v16h-16zm0 0"/>
<path d="m304 368h16v16h-16zm0 0"/>
<path d="m328 328h16v16h-16zm0 0"/>
<path d="m336 360h16v16h-16zm0 0"/>
<path d="m368 312h16v16h-16zm0 0"/>
</svg>